<?xml version="1.0" encoding="UTF-8"?>
<svg version="1.1" xmlns="http://www.w3.org/2000/svg" width="250" height="250">
<path d="M0 0 C82.5 0 165 0 250 0 C250 82.5 250 165 250 250 C167.5 250 85 250 0 250 C0 167.5 0 85 0 0 Z " fill="#010101" transform="translate(0,0)"/>
<path d="M0 0 C82.5 0 165 0 250 0 C250 82.5 250 165 250 250 C167.5 250 85 250 0 250 C0 167.5 0 85 0 0 Z M10 7 C10 83.89 10 160.78 10 240 C62.65896632 240.85116966 62.65896632 240.85116966 115.31276441 241.10139394 C119.81942373 241.09482981 124.32608505 241.09453211 128.83274841 241.09336853 C137.24188267 241.09034696 145.65100279 241.08226775 154.06013101 241.07201904 C163.68660436 241.06055956 173.31307865 241.05527502 182.93955719 241.05032361 C202.62637926 241.04006886 222.31318847 241.02266252 242 241 C242.05624132 201.45108069 242.03624335 161.90372333 241.78125 122.35546875 C241.77303411 121.0812241 241.77303411 121.0812241 241.76465225 119.78123713 C241.69802997 109.51224773 241.62718477 99.24328948 241.55461788 88.97434056 C241.4920159 80.09987247 241.43256388 71.2253839 241.37324238 62.35089338 C241.25207569 44.233906 241.12737974 26.11694471 241 8 C220.92186551 7.86688903 200.84371515 7.73645219 180.76554489 7.60884857 C171.43402058 7.54948706 162.10250237 7.48938335 152.77099609 7.42724609 C144.59747084 7.37282187 136.4239364 7.3200805 128.25038934 7.26903296 C123.95911117 7.24218177 119.66784001 7.21471368 115.37657928 7.18519592 C80.25008335 6.94669438 45.1288956 7 10 7 Z " fill="#030303" transform="translate(0,0)"/>
<path d="M0 0 C78.45299107 0 78.45299107 0 107.80922985 0.20192909 C112.19574652 0.23158975 116.58227974 0.25861485 120.96881104 0.28601074 C129.14410498 0.33742358 137.31938345 0.39094453 145.49465775 0.4453826 C154.85759309 0.50761441 164.22054452 0.56725286 173.58349752 0.62675762 C192.72234981 0.74844532 211.86118148 0.87311637 231 1 C231.13365884 20.0100068 231.26407881 39.02003358 231.39115143 58.03008556 C231.45028872 66.86699111 231.5103069 75.70388866 231.57275391 84.54077148 C231.92416693 134.36126184 232.07084996 184.1782779 232 234 C211.34850359 234.02377302 190.6970101 234.04119 170.04550266 234.05181217 C160.44821772 234.05688385 150.85094146 234.06374267 141.25366211 234.07543945 C132.85052656 234.08567563 124.44739729 234.09191888 116.04425567 234.09408849 C111.6295534 234.09534882 107.21486906 234.09811137 102.80017281 234.10573006 C68.52014486 234.15787573 34.28594465 233.52747607 0 233 C0 156.11 0 79.22 0 0 Z M5 4 C4.82747425 25.93745657 4.66118028 47.87495723 4.5 69.8125 C4.49405146 70.62114533 4.48810292 71.42979067 4.48197412 72.26294041 C4.17799315 113.63357618 3.89652237 155.00295541 3.9375 196.375 C3.93835602 197.24594425 3.93921204 198.1168885 3.94009399 199.01422501 C3.95071351 209.00951048 3.96936446 219.00475455 4 229 C9.05307635 230.02088607 13.86984756 230.13823403 18.99765015 230.12025452 C19.89299111 230.12110894 20.78833207 230.12196337 21.71080458 230.12284368 C24.70484724 230.12448814 27.69883362 230.11899404 30.69287109 230.11352539 C32.84151203 230.11324327 34.99015306 230.11340174 37.13879395 230.1139679 C42.96883967 230.1142549 48.79886483 230.1083738 54.62890577 230.10139394 C60.72278712 230.09514429 66.81666893 230.09455532 72.91055298 230.09336853 C84.44887986 230.09025998 95.98719726 230.08205298 107.52551997 230.07201904 C120.66204636 230.06084316 133.79857321 230.05534373 146.93510318 230.05032361 C173.9567407 230.03986998 200.97836982 230.02227972 228 230 C228.03111261 202.56183575 227.95632675 175.12558853 227.79807091 147.68789554 C227.76921086 142.64057286 227.74168207 137.59324289 227.71398926 132.5459137 C227.66176872 123.06287788 227.60841641 113.57984882 227.5546174 104.09682184 C227.49324722 93.26899619 227.43319976 82.44116332 227.37324238 71.61332977 C227.25026026 49.4088784 227.12568542 27.20443622 227 5 C204.62503919 4.82794973 182.25003866 4.66159847 159.875 4.5 C159.05228607 4.49405146 158.22957214 4.48810292 157.38192749 4.48197412 C106.58686001 4.11509502 55.79654653 3.88085065 5 4 Z " fill="#4E4841" transform="translate(10,7)"/>
<path d="M0 0 C78.45299107 0 78.45299107 0 107.80922985 0.20192909 C112.19574652 0.23158975 116.58227974 0.25861485 120.96881104 0.28601074 C129.14410498 0.33742358 137.31938345 0.39094453 145.49465775 0.4453826 C154.85759309 0.50761441 164.22054452 0.56725286 173.58349752 0.62675762 C192.72234981 0.74844532 211.86118148 0.87311637 231 1 C231.13365884 20.0100068 231.26407881 39.02003358 231.39115143 58.03008556 C231.45028872 66.86699111 231.5103069 75.70388866 231.57275391 84.54077148 C231.92416693 134.36126184 232.07084996 184.1782779 232 234 C211.34850359 234.02377302 190.6970101 234.04119 170.04550266 234.05181217 C160.44821772 234.05688385 150.85094146 234.06374267 141.25366211 234.07543945 C132.85052656 234.08567563 124.44739729 234.09191888 116.04425567 234.09408849 C111.6295534 234.09534882 107.21486906 234.09811137 102.80017281 234.10573006 C68.52014486 234.15787573 34.28594465 233.52747607 0 233 C0 156.11 0 79.22 0 0 Z M2 2 C2 77.9 2 153.8 2 232 C40.8884375 232.2475 40.8884375 232.2475 80.5625 232.5 C92.62341187 232.57831055 92.62341187 232.57831055 104.92797852 232.65820312 C111.53661774 232.69987007 118.14525694 232.74125449 124.75390625 232.78125 C126.04919656 232.78911561 126.04919656 232.78911561 127.37065434 232.79714012 C161.58073714 233.00371591 195.78935817 233.06359066 230 233 C230.02338588 204.93123488 230.04100711 176.86247122 230.05181217 148.79369831 C230.05696304 135.7601673 230.06398269 122.72664235 230.07543945 109.69311523 C230.08542324 98.32984402 230.09186222 86.96657719 230.09408849 75.6033017 C230.09538933 69.58953094 230.0984354 63.57577273 230.10573006 57.562006 C230.1125486 51.89450371 230.11460514 46.22701909 230.11310768 40.55951309 C230.11338139 38.48638627 230.11535175 36.41325883 230.11920547 34.34013557 C230.13775359 23.84170393 230.07347387 13.45465663 229 3 C193.40441253 2.29488346 157.81754441 1.901217 122.21484375 1.90234375 C121.4098372 1.90232526 120.60483065 1.90230677 119.77542996 1.90228772 C106.16277161 1.90279338 92.55015282 1.92174445 78.9375 1.9375 C40.8534375 1.9684375 40.8534375 1.9684375 2 2 Z " fill="#DDD6C4" transform="translate(10,7)"/>
<path d="M0 0 C21.45 0 42.9 0 65 0 C65.59200983 7.69612783 66.14796672 15.1288812 66.12025452 22.8014679 C66.12153615 24.14732547 66.12153615 24.14732547 66.12284368 25.52037209 C66.12446979 28.47885342 66.1190249 31.43727599 66.11352539 34.39575195 C66.11324287 36.53557331 66.11340252 38.67539476 66.1139679 40.81521606 C66.11425334 46.58906409 66.10839757 52.36289109 66.10139394 58.13673425 C66.09511822 64.18386238 66.09455327 70.23099106 66.09336853 76.27812195 C66.09026761 87.71350947 66.082071 99.14888736 66.07201904 110.58427066 C66.06081933 123.609716 66.05533775 136.63516183 66.05032361 149.6606108 C66.0398873 176.44041252 66.02231196 203.22020572 66 230 C19.58339384 230.08564232 -26.82874984 229.86582885 -73.24419749 229.55461788 C-82.52224241 229.49249473 -91.80030262 229.43280741 -101.07836425 229.37324238 C-120.05225992 229.25137983 -139.02613617 229.12671895 -158 229 C-158 228.67 -158 228.34 -158 228 C-137.91408151 227.86721673 -117.82814897 227.73677404 -97.74219894 227.60884857 C-88.40820368 227.54935119 -79.07421381 227.48917981 -69.74023438 227.42724609 C-25.15948123 227.13183944 19.41812105 226.91215511 64 227 C63.94550247 224.99721565 63.89100074 222.99443142 63.83647919 220.99164772 C63.79028691 219.29338596 63.7441706 217.59512213 63.69812775 215.89685631 C63.60441393 212.44300557 63.51038887 208.9891788 63.41186523 205.53546143 C63.07909012 193.85789565 62.96311373 182.18609173 62.97265625 170.50390625 C62.97294358 169.77445714 62.97323092 169.04500803 62.97352695 168.29345441 C62.9811255 151.54897774 63.08417069 134.8053186 63.20192909 118.06131315 C63.23079833 113.92016374 63.25832147 109.77900534 63.28601074 105.6378479 C63.33822169 97.85808579 63.3915762 90.07833199 63.4453826 82.29858077 C63.51832492 71.74190987 63.58941742 61.1852265 63.66063499 50.62854385 C63.77228351 34.08568559 63.88633137 17.54284479 64 1 C42.88 1 21.76 1 0 1 C0 0.67 0 0.34 0 0 Z " fill="#302A24" transform="translate(174,10)"/>
<path d="M0 0 C3.54150893 -0.08761663 7.08273633 -0.14059739 10.625 -0.1875 C11.62402344 -0.21263672 12.62304688 -0.23777344 13.65234375 -0.26367188 C20.84799248 -0.33515183 25.0162054 0.7945866 30.875 5.125 C33.44608053 8.60352071 33.67811994 10.61883233 33.41796875 14.8515625 C32.55141411 19.30581533 30.04085116 21.28917482 26.4375 23.75 C21.61395531 25.50401625 17.12039637 25.68778071 12 26 C12.33 30.95 12.66 35.9 13 41 C15.31 41.66 17.62 42.32 20 43 C20 43.33 20 43.66 20 44 C13.07 44 6.14 44 -1 44 C-1 43.34 -1 42.68 -1 42 C-0.030625 41.87625 0.93875 41.7525 1.9375 41.625 C2.948125 41.41875 3.95875 41.2125 5 41 C6.61301773 37.77396455 6.12053599 34.25289962 6.09765625 30.7109375 C6.09553383 29.48330185 6.09553383 29.48330185 6.09336853 28.23086548 C6.0877629 25.61220675 6.07520948 22.99363296 6.0625 20.375 C6.05748572 18.60156373 6.05292269 16.82812613 6.04882812 15.0546875 C6.03779164 10.70309218 6.02052325 6.3515605 6 2 C4.02 2 2.04 2 0 2 C0 1.34 0 0.68 0 0 Z " fill="#0A0909" transform="translate(36,87)"/>
<path d="M0 0 C78.45299107 0 78.45299107 0 107.80922985 0.20192909 C112.19574652 0.23158975 116.58227974 0.25861485 120.96881104 0.28601074 C129.14410498 0.33742358 137.31938345 0.39094453 145.49465775 0.4453826 C154.85759309 0.50761441 164.22054452 0.56725286 173.58349752 0.62675762 C192.72234985 0.74844532 211.86118084 0.8732083 231 1 C231 6.61 231 12.22 231 18 C229 16 229 16 228.8046875 12.9609375 C228.82789063 11.77757812 228.85109375 10.59421875 228.875 9.375 C228.89304688 8.18648437 228.91109375 6.99796875 228.9296875 5.7734375 C228.95289063 4.85820312 228.97609375 3.94296875 229 3 C228.37456582 3.00111031 227.74913164 3.00222061 227.10474491 3.00336456 C192.14053185 3.06207357 157.1784581 2.99751876 122.21484375 2.78125 C121.4098372 2.77628824 120.60483065 2.77132648 119.77542996 2.76621437 C106.16275641 2.68198263 92.5501349 2.59035027 78.9375 2.5 C40.8534375 2.2525 40.8534375 2.2525 2 2 C1.67 78.23 1.34 154.46 1 233 C0.67 233 0.34 233 0 233 C0 156.11 0 79.22 0 0 Z " fill="#A29888" transform="translate(10,7)"/>
<path d="M0 0 C22.44 0 44.88 0 68 0 C68 0.33 68 0.66 68 1 C45.89 1 23.78 1 1 1 C1.01160156 10.28769531 1.02320313 19.57539063 1.03515625 29.14453125 C1.04099426 35.19515003 1.04662607 41.24576686 1.05078125 47.29638672 C1.05131248 48.06734106 1.05184372 48.8382954 1.05239105 49.63261199 C1.05624156 55.35924109 1.05951199 61.08587039 1.0625 66.8125 C1.0629343 67.62114533 1.06336861 68.42979067 1.06381607 69.26294041 C1.09112797 121.51931576 0.80081066 173.74710423 0 226 C54.12 226.33 108.24 226.66 164 227 C164 227.33 164 227.66 164 228 C81.83 228.495 81.83 228.495 -2 229 C-1.855625 217.016875 -1.71125 205.03375 -1.5625 192.6875 C-1.06692685 149.75081018 -0.73806436 106.81340115 -0.4375 63.875 C-0.43195052 63.08283443 -0.42640103 62.29066886 -0.42068338 61.47449827 C-0.38193575 55.94092642 -0.34335986 50.40735338 -0.30493164 44.8737793 C-0.30010108 44.17827457 -0.29527052 43.48276984 -0.29029357 42.76618922 C-0.19142533 28.51080682 -0.09607168 14.25540182 0 0 Z " fill="#77746E" transform="translate(14,10)"/>
<path d="M0 0 C2.64 0 5.28 0 8 0 C8.61875 1.78277344 8.61875 1.78277344 9.25 3.6015625 C11.15336324 9.07240733 13.07265607 14.53756013 15 20 C15.35787598 21.01449219 15.71575195 22.02898437 16.08447266 23.07421875 C17.15361393 26.09364593 18.23166224 29.10974234 19.3125 32.125 C19.64958984 33.07842285 19.98667969 34.0318457 20.33398438 35.01416016 C20.65302734 35.89894043 20.97207031 36.7837207 21.30078125 37.6953125 C21.58091064 38.47922363 21.86104004 39.26313477 22.1496582 40.07080078 C22.94166819 42.18289593 22.94166819 42.18289593 25 44 C17.08 44.495 17.08 44.495 9 45 C9 44.34 9 43.68 9 43 C11.31 43 13.62 43 16 43 C15.04719844 37.77986377 14.0803813 32.90375592 12 28 C12 27.01 12 26.02 12 25 C9.37405216 25.1136515 6.74988453 25.24039054 4.125 25.375 C3.37863281 25.4059375 2.63226563 25.436875 1.86328125 25.46875 C-2.53473188 25.55643831 -2.53473188 25.55643831 -6 28 C-5.16764063 22.67290005 -3.12440429 17.87465626 -1.171875 12.8828125 C0.93118046 7.57603458 0.93118046 7.57603458 2 2 C1.34 1.34 0.68 0.68 0 0 Z " fill="#E3D7BD" transform="translate(92,87)"/>
<path d="M0 0 C0.33 0 0.66 0 1 0 C1.02312792 7.80575195 1.04091738 15.61149595 1.05181217 23.41727352 C1.05704002 27.0414596 1.06413587 30.6656223 1.07543945 34.28979492 C1.08627184 37.78459975 1.09227758 41.27938204 1.09487724 44.77420235 C1.09763551 46.76239389 1.10544688 48.75057631 1.11329651 50.73875427 C1.11337204 51.93992386 1.11344757 53.14109344 1.11352539 54.37866211 C1.115746 55.44233505 1.11796661 56.506008 1.12025452 57.60191345 C1 60 1 60 0 61 C-2.48878584 61.24439562 -4.9507449 61.42452028 -7.44628906 61.55664062 C-8.2131818 61.59878944 -8.98007454 61.64093826 -9.77020645 61.68436432 C-18.13516465 62.10871269 -26.48583572 62.12796165 -34.859375 62.09375 C-36.70961459 62.08989158 -38.55985472 62.08628269 -40.41009521 62.08288574 C-47.27345495 62.06663504 -54.13671004 62.03440405 -61 62 C-61.7018404 61.99648277 -62.4036808 61.99296555 -63.12678909 61.98934174 C-87.37656711 61.86700003 -111.62614568 61.71339395 -135.8757081 61.55461884 C-145.29120342 61.49302089 -154.70670912 61.4330831 -164.12221575 61.37324238 C-183.41482204 61.2505922 -202.70741523 61.12598812 -222 61 C-222 60.67 -222 60.34 -222 60 C-201.91408151 59.86721673 -181.82814897 59.73677404 -161.74219894 59.60884857 C-152.40820368 59.54935119 -143.07421381 59.48917981 -133.74023438 59.42724609 C-89.15880541 59.13183496 -44.58271165 58.94360188 0 59 C0 39.53 0 20.06 0 0 Z " fill="#3E3833" transform="translate(238,178)"/>
<path d="M0 0 C6.27 0 12.54 0 19 0 C19 0.33 19 0.66 19 1 C17.02 1.66 15.04 2.32 13 3 C12.88331582 7.52061442 12.81258355 12.04083847 12.75 16.5625 C12.71648437 17.83931641 12.68296875 19.11613281 12.6484375 20.43164062 C12.57516333 27.48427942 12.55287424 32.36211379 17 38 C22.0948518 41.85220502 27.87098179 41.76395694 34 41 C38.61914046 39.72784328 41.14730338 38.39929702 43.67578125 34.25 C45.9917684 28.35231179 45.57724083 21.80316902 45.6875 15.5625 C45.72166016 14.25861328 45.75582031 12.95472656 45.79101562 11.61132812 C45.87316153 8.40763802 45.9424241 5.20421021 46 2 C43.36 1.67 40.72 1.34 38 1 C38 0.67 38 0.34 38 0 C43.61 0 49.22 0 55 0 C51 2 51 2 49 2 C48.9906543 2.80630859 48.98130859 3.61261719 48.97167969 4.44335938 C48.9176896 8.12950585 48.83409552 11.81442241 48.75 15.5 C48.73582031 16.7684375 48.72164062 18.036875 48.70703125 19.34375 C48.50249211 27.19805299 48.20753447 33.78427231 42.37011719 39.63305664 C37.11435034 44.06751092 30.31521233 43.75347256 23.79296875 43.41015625 C18.16126046 42.80116617 14.55090772 41.66212873 10.61132812 37.55078125 C5.74424613 30.87635448 6.21815727 23.41143448 6.1875 15.5 C6.16432103 14.09110771 6.13894869 12.68224971 6.11132812 11.2734375 C6.05268492 7.84867435 6.0162346 4.42518306 6 1 C4.02 1 2.04 1 0 1 C0 0.67 0 0.34 0 0 Z " fill="#CFC6B3" transform="translate(123,88)"/>
<path d="M0 0 C3.54150893 -0.08761663 7.08273633 -0.14059739 10.625 -0.1875 C11.62402344 -0.21263672 12.62304688 -0.23777344 13.65234375 -0.26367188 C20.84799248 -0.33515183 25.0162054 0.7945866 30.875 5.125 C33.44564461 8.60293094 33.67218968 10.61647153 33.42578125 14.84765625 C32.7840015 18.09188234 31.40962954 19.79117292 29 22 C26.9375 23.375 26.9375 23.375 25 24 C24.01 23.67 23.02 23.34 22 23 C22.639375 22.401875 23.27875 21.80375 23.9375 21.1875 C26.79206411 18.15993201 27.18363351 15.58449089 27.3125 11.5625 C27.34988281 10.80066406 27.38726562 10.03882812 27.42578125 9.25390625 C26.823467 6.06550879 25.49176768 5.04194738 23 3 C19.97698602 2.09533069 19.97698602 2.09533069 16.75 1.75 C15.67234375 1.60046875 14.5946875 1.4509375 13.484375 1.296875 C12.66453125 1.19890625 11.8446875 1.1009375 11 1 C11.11822835 6.2145927 11.24247541 11.428994 11.37231445 16.64331055 C11.41563934 18.41735937 11.45731619 20.19144923 11.49731445 21.96557617 C11.5550762 24.51493705 11.61875362 27.0640918 11.68359375 29.61328125 C11.70030624 30.40712723 11.71701874 31.20097321 11.73423767 32.01887512 C11.82117718 35.24683077 11.97250366 37.91751099 13 41 C16.51190809 42.22969878 16.51190809 42.22969878 20 43 C20 43.33 20 43.66 20 44 C13.07 44 6.14 44 -1 44 C-1 43.34 -1 42.68 -1 42 C-0.030625 41.87625 0.93875 41.7525 1.9375 41.625 C2.948125 41.41875 3.95875 41.2125 5 41 C6.61301773 37.77396455 6.12053599 34.25289962 6.09765625 30.7109375 C6.09553383 29.48330185 6.09553383 29.48330185 6.09336853 28.23086548 C6.0877629 25.61220675 6.07520948 22.99363296 6.0625 20.375 C6.05748572 18.60156373 6.05292269 16.82812613 6.04882812 15.0546875 C6.03779164 10.70309218 6.02052325 6.3515605 6 2 C4.02 2 2.04 2 0 2 C0 1.34 0 0.68 0 0 Z " fill="#F7E8C9" transform="translate(36,87)"/>
<path d="M0 0 C6.6 0 13.2 0 20 0 C20 0.33 20 0.66 20 1 C18.2984375 1.4640625 18.2984375 1.4640625 16.5625 1.9375 C13.21224901 2.62924531 13.21224901 2.62924531 12 4 C11.91141354 6.73894085 11.88476521 9.4525327 11.90234375 12.19140625 C11.90446617 13.42116432 11.90446617 13.42116432 11.90663147 14.67576599 C11.91224711 17.30471382 11.92480221 19.93357773 11.9375 22.5625 C11.94251299 24.34049357 11.94707624 26.11848846 11.95117188 27.89648438 C11.96222161 32.26435545 11.97949669 36.63216348 12 41 C14.91589538 40.92810687 17.82767729 40.83238721 20.7421875 40.72265625 C21.56614014 40.70481079 22.39009277 40.68696533 23.23901367 40.6685791 C28.14922301 40.46646374 28.14922301 40.46646374 32.52392578 38.38842773 C34.33758382 36.30230212 34.33758382 36.30230212 36 33 C36 36.48466485 35.22522889 38.71399867 33.13525391 41.51611328 C28.12411184 44.99858772 20.55511979 43.67230606 14.6875 43.4375 C13.16869111 43.40236712 11.64980467 43.37043152 10.13085938 43.34179688 C6.41895608 43.26486369 2.7099689 43.1441903 -1 43 C1 42 3 41 5 40 C6.17975644 36.46073068 6.16211347 33.24214551 6.16796875 29.55859375 C6.17129715 28.83511246 6.17462555 28.11163116 6.17805481 27.3662262 C6.18311173 25.8389652 6.18546352 24.31169319 6.18530273 22.78442383 C6.18749514 20.44268786 6.20567948 18.10141863 6.22460938 15.75976562 C6.22754232 14.27604328 6.22952778 12.7923187 6.23046875 11.30859375 C6.23765427 10.60649277 6.24483978 9.90439178 6.25224304 9.18101501 C6.34798937 5.14194794 6.34798937 5.14194794 4 2 C2.68 1.34 1.36 0.68 0 0 Z " fill="#FCF0D1" transform="translate(185,88)"/>
<path d="M0 0 C0.7425 0.185625 1.485 0.37125 2.25 0.5625 C4.91934374 1.18895441 4.91934374 1.18895441 7.125 0.375 C9 0 9 0 10.8125 1.125 C12 3 12 3 11.6875 5.6875 C11.460625 6.450625 11.23375 7.21375 11 8 C10.2575 8.12375 9.515 8.2475 8.75 8.375 C6.06403286 8.83990411 6.06403286 8.83990411 4.1875 10.0625 C0.79714167 11.51551071 -2.33354409 11.1222152 -6 11 C-6 10.67 -6 10.34 -6 10 C-8.97 9.505 -8.97 9.505 -12 9 C-12 9.66 -12 10.32 -12 11 C-13.65 11 -15.3 11 -17 11 C-17 7.7 -17 4.4 -17 1 C-14.525 1.99 -14.525 1.99 -12 3 C-11.34 2.34 -10.68 1.68 -10 1 C-9.54625 1.969375 -9.0925 2.93875 -8.625 3.9375 C-7.34213779 7.07079582 -7.34213779 7.07079582 -5 8 C-5 5.69 -5 3.38 -5 1 C-4.34 1 -3.68 1 -3 1 C-2.67 2.98 -2.34 4.96 -2 7 C-1.01 6.67 -0.02 6.34 1 6 C0.01 5.34 -0.98 4.68 -2 4 C-1.34 2.68 -0.68 1.36 0 0 Z " fill="#62605B" transform="translate(92,148)"/>
<path d="M0 0 C6.27 0 12.54 0 19 0 C19 0.33 19 0.66 19 1 C18.030625 1.28875 17.06125 1.5775 16.0625 1.875 C12.89335797 2.64214682 12.89335797 2.64214682 12 5 C11.9025919 7.05806764 11.86923123 9.11931701 11.8671875 11.1796875 C11.86589844 12.41847656 11.86460937 13.65726563 11.86328125 14.93359375 C11.86714844 16.23425781 11.87101563 17.53492188 11.875 18.875 C11.87113281 20.16792969 11.86726562 21.46085937 11.86328125 22.79296875 C11.86521484 24.65501953 11.86521484 24.65501953 11.8671875 26.5546875 C11.86831543 27.69405762 11.86944336 28.83342773 11.87060547 30.00732422 C11.97967568 32.52993294 12.261388 34.60079458 13 37 C10 36 10 36 8.34448242 33.87817383 C6.7162687 30.39260789 6.56999863 27.78993557 6.48828125 23.94921875 C6.47033005 23.29041214 6.45237885 22.63160553 6.43388367 21.95283508 C6.38003344 19.86445369 6.34596892 17.7762974 6.3125 15.6875 C6.2793043 14.2649428 6.24481256 12.84241521 6.20898438 11.41992188 C6.12432399 7.94683085 6.0573923 4.47366087 6 1 C4.02 1 2.04 1 0 1 C0 0.67 0 0.34 0 0 Z " fill="#E9DDC3" transform="translate(123,88)"/>
<path d="M0 0 C1.24090897 0.00007553 2.48181793 0.00015106 3.7603302 0.00022888 C5.10413656 0.00533467 6.44794251 0.01055065 7.79174805 0.01586914 C9.17465666 0.01773574 10.55756595 0.0191585 11.94047546 0.02015686 C15.56871385 0.02396302 19.1969118 0.03377696 22.82513428 0.04486084 C26.53209893 0.05511594 30.23907015 0.05966324 33.94604492 0.06469727 C41.2110394 0.07540104 48.47599226 0.09298233 55.7409668 0.11352539 C55.7409668 5.72352539 55.7409668 11.33352539 55.7409668 17.11352539 C54.7509668 16.12352539 54.7509668 16.12352539 53.7409668 15.11352539 C53.7409668 10.82352539 53.7409668 6.53352539 53.7409668 2.11352539 C32.2909668 2.11352539 10.8409668 2.11352539 -11.2590332 2.11352539 C-11.2590332 1.78352539 -11.2590332 1.45352539 -11.2590332 1.11352539 C-7.44241738 0.22144533 -3.91558079 -0.00797471 0 0 Z " fill="#B1A999" transform="translate(185.259033203125,7.886474609375)"/>
<path d="M0 0 C0.66 0 1.32 0 2 0 C2.26554687 0.80824219 2.53109375 1.61648437 2.8046875 2.44921875 C3.15789062 3.51785156 3.51109375 4.58648437 3.875 5.6875 C4.22304687 6.74324219 4.57109375 7.79898438 4.9296875 8.88671875 C5.87331366 11.63149994 6.89491289 14.31692815 8 17 C7 18 7 18 4.27734375 18.09765625 C3.17519531 18.08605469 2.07304688 18.07445313 0.9375 18.0625 C-0.71958984 18.04896484 -0.71958984 18.04896484 -2.41015625 18.03515625 C-3.26480469 18.02355469 -4.11945313 18.01195313 -5 18 C-6.39214652 13.82356045 -4.70664266 11.16562207 -3.0625 7.3125 C-2.77181641 6.61060547 -2.48113281 5.90871094 -2.18164062 5.18554688 C-1.46289687 3.45349225 -0.73254669 1.72626219 0 0 Z " fill="#12100F" transform="translate(95,93)"/>
<path d="M0 0 C0.83071518 0.00141495 1.66143036 0.0028299 2.51731873 0.00428772 C5.1352825 0.00982455 7.75315642 0.02236463 10.37109375 0.03515625 C12.16080604 0.04017944 13.9505197 0.0447409 15.74023438 0.04882812 C20.09638808 0.05977317 24.45247575 0.07699306 28.80859375 0.09765625 C29.30359375 1.58265625 29.30359375 1.58265625 29.80859375 3.09765625 C13.96859375 3.09765625 -1.87140625 3.09765625 -18.19140625 3.09765625 C-18.19140625 2.43765625 -18.19140625 1.77765625 -18.19140625 1.09765625 C-12.0823833 0.32904169 -6.15287907 -0.04046726 0 0 Z " fill="#504B44" transform="translate(145.19140625,8.90234375)"/>
<path d="M0 0 C3.54150893 -0.08761663 7.08273633 -0.14059739 10.625 -0.1875 C11.62402344 -0.21263672 12.62304688 -0.23777344 13.65234375 -0.26367188 C20.84799248 -0.33515183 25.0162054 0.7945866 30.875 5.125 C33.44564461 8.60293094 33.67218968 10.61647153 33.42578125 14.84765625 C32.7840015 18.09188234 31.40962954 19.79117292 29 22 C26.9375 23.375 26.9375 23.375 25 24 C24.01 23.67 23.02 23.34 22 23 C22.639375 22.401875 23.27875 21.80375 23.9375 21.1875 C27.36859768 17.548457 27.33558283 13.92849055 27.2890625 9.16015625 C27.14494742 6.78397502 27.14494742 6.78397502 25.1875 4.5 C21.86444551 2.22133406 19.25504487 1.8773564 15.33203125 1.90234375 C14.43935547 1.90556641 13.54667969 1.90878906 12.62695312 1.91210938 C11.69818359 1.92048828 10.76941406 1.92886719 9.8125 1.9375 C8.40194336 1.94426758 8.40194336 1.94426758 6.96289062 1.95117188 C4.64186288 1.96295374 2.32096356 1.97940442 0 2 C0 1.34 0 0.68 0 0 Z " fill="#C0B7A4" transform="translate(36,87)"/>
<path d="M0 0 C-0.33 2.31 -0.66 4.62 -1 7 C-5.77573323 9.61895048 -9.84434881 8.83119431 -15 8 C-15.82638376 5.10765685 -16 3.11257569 -16 0 C-13.69 0 -11.38 0 -9 0 C-9 0.66 -9 1.32 -9 2 C-8.34 2 -7.68 2 -7 2 C-6.67 1.34 -6.34 0.68 -6 0 C-3.50907189 -1.24546405 -2.58919267 -0.7767578 0 0 Z " fill="#5F5B56" transform="translate(169,163)"/>
<path d="M0 0 C5.875 0.875 5.875 0.875 7 2 C7.33 1.34 7.66 0.68 8 0 C9.98 0 11.96 0 14 0 C14 1.98 14 3.96 14 6 C12.68 5.67 11.36 5.34 10 5 C10.33 5.66 10.66 6.32 11 7 C11.99 7 12.98 7 14 7 C14 7.66 14 8.32 14 9 C12.02 9 10.04 9 8 9 C7.67 8.34 7.34 7.68 7 7 C6.34 7.66 5.68 8.32 5 9 C2.375 9.125 2.375 9.125 0 9 C0 6.03 0 3.06 0 0 Z " fill="#6B6761" transform="translate(116,148)"/>
<path d="M0 0 C0.99 0 1.98 0 3 0 C3.33 0.66 3.66 1.32 4 2 C4.33 1.34 4.66 0.68 5 0 C8.3125 0.125 8.3125 0.125 12 1 C13.9375 4.0625 13.9375 4.0625 15 7 C15.33 7 15.66 7 16 7 C16.33 5.02 16.66 3.04 17 1 C17.33 1 17.66 1 18 1 C18.33 2.98 18.66 4.96 19 7 C20.32 7.33 21.64 7.66 23 8 C21.41132134 9.58867866 19.75310484 9.20794039 17.5625 9.25 C16.75941406 9.27578125 15.95632812 9.3015625 15.12890625 9.328125 C14.42636719 9.21984375 13.72382813 9.1115625 13 9 C12.34 8.01 11.68 7.02 11 6 C10.67 6.99 10.34 7.98 10 9 C9.34 9 8.68 9 8 9 C8 8.01 8 7.02 8 6 C7.01 7.485 7.01 7.485 6 9 C4.35 8.67 2.7 8.34 1 8 C0.67 5.36 0.34 2.72 0 0 Z " fill="#43403E" transform="translate(142,148)"/>
<path d="M0 0 C6.8359375 -0.29296875 6.8359375 -0.29296875 9 0 C9.66 0.99 10.32 1.98 11 3 C11.33 2.01 11.66 1.02 12 0 C12.66 0 13.32 0 14 0 C14 2.64 14 5.28 14 8 C13.34 8 12.68 8 12 8 C11.34 7.01 10.68 6.02 10 5 C9.67 6.32 9.34 7.64 9 9 C6.03 9 3.06 9 0 9 C0 6.03 0 3.06 0 0 Z " fill="#4D4A46" transform="translate(129,162)"/>
<path d="M0 0 C1.98 0 3.96 0 6 0 C5.67 0.66 5.34 1.32 5 2 C5.66 2.33 6.32 2.66 7 3 C7 4.65 7 6.3 7 8 C5.68 7.67 4.36 7.34 3 7 C3 7.99 3 8.98 3 10 C4.32 9.67 5.64 9.34 7 9 C7 9.66 7 10.32 7 11 C5.02 11 3.04 11 1 11 C1 8.69 1 6.38 1 4 C0.01 4 -0.98 4 -2 4 C-2 6.31 -2 8.62 -2 11 C-2.66 11 -3.32 11 -4 11 C-4 8.69 -4 6.38 -4 4 C-4.99 4 -5.98 4 -7 4 C-7 6.31 -7 8.62 -7 11 C-7.66 11 -8.32 11 -9 11 C-9 8.36 -9 5.72 -9 3 C-4.545 2.505 -4.545 2.505 0 2 C0 1.34 0 0.68 0 0 Z " fill="#76716A" transform="translate(175,146)"/>
<path d="M0 0 C5.61 0 11.22 0 17 0 C13 2 13 2 11 2 C10.97494385 2.83249268 10.9498877 3.66498535 10.92407227 4.52270508 C10.82887306 7.61462833 10.72964328 10.70638852 10.62768555 13.7980957 C10.56312994 15.79303319 10.5032217 17.78811929 10.44335938 19.78320312 C10.40146484 21.03681641 10.35957031 22.29042969 10.31640625 23.58203125 C10.26141968 25.31803589 10.26141968 25.31803589 10.20532227 27.08911133 C10 30 10 30 9 33 C8.34 33 7.68 33 7 33 C7.33 22.77 7.66 12.54 8 2 C5.36 1.67 2.72 1.34 0 1 C0 0.67 0 0.34 0 0 Z " fill="#BDB4A3" transform="translate(161,88)"/>
<path d="M0 0 C0.33 0 0.66 0 1 0 C1.33 6.6 1.66 13.2 2 20 C12.63843016 20.51934391 12.63843016 20.51934391 22.53125 17.375 C24.33935708 15.30057553 24.33935708 15.30057553 26 12 C26 15.78144917 25.04454608 17.52037388 22.81396484 20.50732422 C19.09564049 23.56705976 14.38705216 22.78989865 9.8125 22.5625 C8.80251953 22.54767578 7.79253906 22.53285156 6.75195312 22.51757812 C-0.67619978 22.32380022 -0.67619978 22.32380022 -3 20 C-2.01 19.67 -1.02 19.34 0 19 C0 12.73 0 6.46 0 0 Z " fill="#C3BAAA" transform="translate(195,109)"/>
<path d="M0 0 C2.64 0 5.28 0 8 0 C8.36402369 1.43503555 8.71586591 2.87316506 9.0625 4.3125 C9.25972656 5.11300781 9.45695312 5.91351563 9.66015625 6.73828125 C10 9 10 9 9 12 C8.01 11.67 7.02 11.34 6 11 C5.67 9.35 5.34 7.7 5 6 C4.34 6 3.68 6 3 6 C2.80664062 6.58007812 2.61328125 7.16015625 2.4140625 7.7578125 C0.94270833 12.171875 -0.52864583 16.5859375 -2 21 C-2.66 20.34 -3.32 19.68 -4 19 C-3.566875 18.02417969 -3.13375 17.04835938 -2.6875 16.04296875 C-2.1247129 14.7579382 -1.56222866 13.47277498 -1 12.1875 C-0.71382813 11.54490234 -0.42765625 10.90230469 -0.1328125 10.24023438 C1.13711041 7.32243531 2 5.21734286 2 2 C1.34 1.34 0.68 0.68 0 0 Z " fill="#DBD0B9" transform="translate(92,87)"/>
<path d="M0 0 C0.33 0 0.66 0 1 0 C1.06058594 0.90363281 1.12117188 1.80726562 1.18359375 2.73828125 C1.26738281 3.91777344 1.35117187 5.09726563 1.4375 6.3125 C1.51871094 7.48425781 1.59992187 8.65601562 1.68359375 9.86328125 C1.8867371 13.02590958 1.8867371 13.02590958 3 16 C6.51190809 17.22969878 6.51190809 17.22969878 10 18 C10 18.33 10 18.66 10 19 C3.07 19 -3.86 19 -11 19 C-11 18.34 -11 17.68 -11 17 C-10.05125 16.938125 -9.1025 16.87625 -8.125 16.8125 C-7.09375 16.544375 -6.0625 16.27625 -5 16 C-3.54708727 13.53744315 -3.54708727 13.53744315 -3 11 C-2.67 12.32 -2.34 13.64 -2 15 C-1.34 15 -0.68 15 0 15 C0 10.05 0 5.1 0 0 Z " fill="#D7CCB5" transform="translate(46,112)"/>
<path d="M0 0 C6.6 0 13.2 0 20 0 C20 0.33 20 0.66 20 1 C18.2984375 1.4640625 18.2984375 1.4640625 16.5625 1.9375 C13.21224901 2.62924531 13.21224901 2.62924531 12 4 C11.76712992 5.68183948 11.58735834 7.3712416 11.4375 9.0625 C11.35371094 9.98160156 11.26992187 10.90070313 11.18359375 11.84765625 C11.12300781 12.55792969 11.06242188 13.26820312 11 14 C10.34 13.01 9.68 12.02 9 11 C8.01 12.485 8.01 12.485 7 14 C6.95101562 13.30132812 6.90203125 12.60265625 6.8515625 11.8828125 C6.77679688 10.97273438 6.70203125 10.06265625 6.625 9.125 C6.52058594 7.76761719 6.52058594 7.76761719 6.4140625 6.3828125 C6.20431868 3.82058097 6.20431868 3.82058097 4 2 C2.68 1.34 1.36 0.68 0 0 Z " fill="#DFD3BB" transform="translate(185,88)"/>
<path d="M0 0 C1.32 0.33 2.64 0.66 4 1 C4 11.89 4 22.78 4 34 C3.67 34 3.34 34 3 34 C2.67 31.69 2.34 29.38 2 27 C1.67 27 1.34 27 1 27 C0.67 18.09 0.34 9.18 0 0 Z " fill="#2A2624" transform="translate(188,91)"/>
<path d="M0 0 C2 1 2 1 3 2 C3.07179964 3.51928038 3.08392007 5.04167482 3.0625 6.5625 C3.05347656 7.38878906 3.04445313 8.21507812 3.03515625 9.06640625 C3.01775391 10.02353516 3.01775391 10.02353516 3 11 C1.02 11 -0.96 11 -3 11 C-3.08096803 9.54257537 -3.13917774 8.08387193 -3.1875 6.625 C-3.22230469 5.81289062 -3.25710937 5.00078125 -3.29296875 4.1640625 C-3.19628906 3.44992188 -3.09960938 2.73578125 -3 2 C-2.01 1.34 -1.02 0.68 0 0 Z " fill="#534F4A" transform="translate(115,160)"/>
<path d="M0 0 C0.625 2.3125 0.625 2.3125 1 5 C0.01 6.485 0.01 6.485 -1 8 C-0.67 8.66 -0.34 9.32 0 10 C-2.91517292 8.92598892 -4.77810176 8.22189824 -7 6 C-6.75 2.9375 -6.75 2.9375 -6 0 C-3.50907189 -1.24546405 -2.58919267 -0.7767578 0 0 Z " fill="#918B83" transform="translate(141,149)"/>
<path d="M0 0 C2.375 -0.125 2.375 -0.125 5 0 C7 2 7 2 7.3125 4.5 C7.209375 5.325 7.10625 6.15 7 7 C4 9 4 9 0 9 C0 6.03 0 3.06 0 0 Z " fill="#5D5A54" transform="translate(104,162)"/>
<path d="M0 0 C1.98 0 3.96 0 6 0 C6.625 3.375 6.625 3.375 7 7 C5 9 5 9 2.375 9.125 C1.59125 9.08375 0.8075 9.0425 0 9 C0 6.03 0 3.06 0 0 Z " fill="#514E48" transform="translate(119,162)"/>
<path d="M0 0 C1.27171984 3.81515952 0.27137096 5.26067364 -1 9 C-1.16857483 11.75065232 -1.16857483 11.75065232 -1 14 C1.97 14.495 1.97 14.495 5 15 C5 15.33 5 15.66 5 16 C-0.61 16 -6.22 16 -12 16 C-12 15.67 -12 15.34 -12 15 C-11.0925 14.855625 -10.185 14.71125 -9.25 14.5625 C-4.46277047 12.26094734 -3.79050766 8.76926131 -2 4 C-1.34986653 2.65852742 -0.68831432 1.32228803 0 0 Z " fill="#C4BDAE" transform="translate(85,115)"/>
<path d="M0 0 C2.0625 0.4375 2.0625 0.4375 4 1 C3.67 3.31 3.34 5.62 3 8 C1.35 8.66 -0.3 9.32 -2 10 C-3.60920937 6.78158126 -2.0749168 4.28446801 -1 1 C-0.67 0.67 -0.34 0.34 0 0 Z " fill="#4B4845" transform="translate(165,162)"/>
<path d="M0 0 C1.32 0.33 2.64 0.66 4 1 C5 4 5 4 4.0625 6.1875 C3.5365625 7.0846875 3.5365625 7.0846875 3 8 C3.66 8 4.32 8 5 8 C5 8.66 5 9.32 5 10 C3.35 10 1.7 10 0 10 C0 6.7 0 3.4 0 0 Z M6 3 C8 5 8 5 8 8 C7.01 8 6.02 8 5 8 C5.33 6.35 5.66 4.7 6 3 Z " fill="#3D3A37" transform="translate(75,149)"/>
<path d="M0 0 C0.33 0 0.66 0 1 0 C1.33 6.27 1.66 12.54 2 19 C1.34 19.33 0.68 19.66 0 20 C0.33 20.66 0.66 21.32 1 22 C-2.3 22 -5.6 22 -9 22 C-7 21 -5 20 -3 19 C-0.51955685 15.27933528 -0.55618827 12.13459526 -0.375 7.8125 C-0.31699219 6.68811523 -0.31699219 6.68811523 -0.2578125 5.54101562 C-0.16371784 3.69440801 -0.08077681 1.8472381 0 0 Z " fill="#F0E2C6" transform="translate(193,109)"/>
<path d="M0 0 C2.0245738 1.93254772 3.42105792 3.63158688 5 6 C5.33 4.02 5.66 2.04 6 0 C6.33 0 6.66 0 7 0 C7.33 1.98 7.66 3.96 8 6 C9.32 6.33 10.64 6.66 12 7 C10.41132134 8.58867866 8.75310484 8.20794039 6.5625 8.25 C5.75941406 8.27578125 4.95632812 8.3015625 4.12890625 8.328125 C3.42636719 8.21984375 2.72382813 8.1115625 2 8 C1.34 7.01 0.68 6.02 0 5 C-0.33 5.99 -0.66 6.98 -1 8 C-1.66 8 -2.32 8 -3 8 C-1.125 2.25 -1.125 2.25 0 0 Z " fill="#8D8881" transform="translate(153,149)"/>
<path d="M0 0 C0.33 0 0.66 0 1 0 C1.33 6.6 1.66 13.2 2 20 C2.99 20 3.98 20 5 20 C5 20.66 5 21.32 5 22 C2.125 22.125 2.125 22.125 -1 22 C-1.66 21.34 -2.32 20.68 -3 20 C-2.01 19.67 -1.02 19.34 0 19 C0 12.73 0 6.46 0 0 Z " fill="#D7C9B3" transform="translate(195,109)"/>
<path d="M0 0 C2.52197266 -0.2487793 2.52197266 -0.2487793 5.6640625 -0.07421875 C7.34628906 0.00795898 7.34628906 0.00795898 9.0625 0.09179688 C10.238125 0.16462891 11.41375 0.23746094 12.625 0.3125 C14.40003906 0.4043457 14.40003906 0.4043457 16.2109375 0.49804688 C19.14164579 0.65167271 22.0708392 0.81957381 25 1 C25 1.33 25 1.66 25 2 C11.635 2.495 11.635 2.495 -2 3 C-1.34 2.01 -0.68 1.02 0 0 Z " fill="#534E4A" transform="translate(14,236)"/>
<path d="M0 0 C1.98 0 3.96 0 6 0 C5.67 1.65 5.34 3.3 5 5 C4.01 5 3.02 5 2 5 C2 5.99 2 6.98 2 8 C1.34 8 0.68 8 0 8 C0 5.36 0 2.72 0 0 Z " fill="#6D6962" transform="translate(81,162)"/>
<path d="M0 0 C0.66 1.32 1.32 2.64 2 4 C-1.17320782 7.53586014 -3.16743695 9.58578031 -8 10 C-7.38125 9.236875 -6.7625 8.47375 -6.125 7.6875 C-3.94402948 5.00374191 -3.94402948 5.00374191 -2 2 C-1.34 1.34 -0.68 0.68 0 0 Z " fill="#DAD0B7" transform="translate(66,101)"/>
<path d="M0 0 C0.33 0.99 0.66 1.98 1 3 C0.67 3.66 0.34 4.32 0 5 C-0.66 4.67 -1.32 4.34 -2 4 C-1.34 2.68 -0.68 1.36 0 0 Z M-9 2 C-8.34 2 -7.68 2 -7 2 C-6.67 2.66 -6.34 3.32 -6 4 C-3.98330173 5.13350534 -3.98330173 5.13350534 -2 6 C-4.91482778 6.80967438 -6.46113217 7.21845993 -9.3125 6.0625 C-9.869375 5.711875 -10.42625 5.36125 -11 5 C-10.34 4.67 -9.68 4.34 -9 4 C-9 3.34 -9 2.68 -9 2 Z " fill="#0B0A09" transform="translate(150,152)"/>
<path d="M0 0 C0.99 0.33 1.98 0.66 3 1 C2.67 3.31 2.34 5.62 2 8 C1.01 7.67 0.02 7.34 -1 7 C-1.04254356 5.00045254 -1.04080783 2.99958364 -1 1 C-0.67 0.67 -0.34 0.34 0 0 Z " fill="#100F0E" transform="translate(90,163)"/>
<path d="M0 0 C0.66 0 1.32 0 2 0 C1.67 2.64 1.34 5.28 1 8 C-0.32 6.68 -1.64 5.36 -3 4 C-3.66 5.32 -4.32 6.64 -5 8 C-5 5.69 -5 3.38 -5 1 C-3.02 1.99 -3.02 1.99 -1 3 C-0.67 2.01 -0.34 1.02 0 0 Z " fill="#8B8780" transform="translate(101,162)"/>
<path d="M0 0 C0.66 0.99 1.32 1.98 2 3 C5.11610554 3.58592634 5.11610554 3.58592634 8.625 3.6875 C9.81351563 3.75324219 11.00203125 3.81898437 12.2265625 3.88671875 C13.14179687 3.92410156 14.05703125 3.96148437 15 4 C15 4.33 15 4.66 15 5 C13.94039062 5.04898438 12.88078125 5.09796875 11.7890625 5.1484375 C10.40101503 5.22346709 9.01299549 5.29901485 7.625 5.375 C6.57699219 5.42140625 6.57699219 5.42140625 5.5078125 5.46875 C1.29814173 5.59499498 1.29814173 5.59499498 -2 8 C-1.47731534 5.23723823 -0.89130413 2.6739124 0 0 Z " fill="#E7DEC7" transform="translate(88,107)"/>
<path d="M0 0 C0.99 0.33 1.98 0.66 3 1 C4.1875 4.0625 4.1875 4.0625 5 7 C3.35 7.33 1.7 7.66 0 8 C0 5.36 0 2.72 0 0 Z " fill="#7E7671" transform="translate(68,149)"/>
<path d="M0 0 C0.99 0.33 1.98 0.66 3 1 C2.67 1.66 2.34 2.32 2 3 C2.33 3.66 2.66 4.32 3 5 C2.5625 7.125 2.5625 7.125 2 9 C0.68 9 -0.64 9 -2 9 C-2 8.34 -2 7.68 -2 7 C-1.01 6.67 -0.02 6.34 1 6 C0.01 5.34 -0.98 4.68 -2 4 C-1.34 2.68 -0.68 1.36 0 0 Z " fill="#85827B" transform="translate(92,148)"/>
<path d="M0 0 C0.66 0 1.32 0 2 0 C2 2.64 2 5.28 2 8 C1.34 8 0.68 8 0 8 C-1.38232443 6.37373596 -2.71937515 4.7074998 -4 3 C-3.67 2.34 -3.34 1.68 -3 1 C-2.34 1.66 -1.68 2.32 -1 3 C-0.67 2.01 -0.34 1.02 0 0 Z " fill="#827E76" transform="translate(141,162)"/>
<path d="M0 0 C0.99 0.33 1.98 0.66 3 1 C2.34 1 1.68 1 1 1 C1 3.31 1 5.62 1 8 C0.01 7.67 -0.98 7.34 -2 7 C-2.875 5.125 -2.875 5.125 -3 3 C-1.5625 1.25 -1.5625 1.25 0 0 Z " fill="#110F0D" transform="translate(86,148)"/>
<path d="M0 0 C0.66 0.33 1.32 0.66 2 1 C1.67 1.33 1.34 1.66 1 2 C1.66 2.33 2.32 2.66 3 3 C3 4.65 3 6.3 3 8 C1.68 7.67 0.36 7.34 -1 7 C-1.04254356 5.00045254 -1.04080783 2.99958364 -1 1 C-0.67 0.67 -0.34 0.34 0 0 Z " fill="#3F3D39" transform="translate(179,146)"/>
<path d="M0 0 C5.28 0 10.56 0 16 0 C16 0.33 16 0.66 16 1 C13.03 1 10.06 1 7 1 C7 1.66 7 2.32 7 3 C4.03824877 2.38722388 2.61941217 1.74627478 0 0 Z " fill="#3F3B32" transform="translate(120,9)"/>
<path d="M0 0 C1.32 0 2.64 0 4 0 C4 1.65 4 3.3 4 5 C2.68 5 1.36 5 0 5 C0 3.35 0 1.7 0 0 Z " fill="#070606" transform="translate(136,150)"/>
<path d="M0 0 C1.32 0 2.64 0 4 0 C4 1.65 4 3.3 4 5 C2.68 5 1.36 5 0 5 C0 3.35 0 1.7 0 0 Z " fill="#070706" transform="translate(98,150)"/>
<path d="M0 0 C0.99 0 1.98 0 3 0 C3 2.31 3 4.62 3 7 C2.01 7 1.02 7 0 7 C0 4.69 0 2.38 0 0 Z " fill="#080707" transform="translate(168,150)"/>
<path d="M0 0 C0.66 0 1.32 0 2 0 C2.33 1.65 2.66 3.3 3 5 C1.1875 6.0625 1.1875 6.0625 -1 7 C-1.99 6.67 -2.98 6.34 -4 6 C-3.34 6 -2.68 6 -2 6 C-2 5.01 -2 4.02 -2 3 C-1.01 3 -0.02 3 1 3 C0.67 2.01 0.34 1.02 0 0 Z " fill="#13100F" transform="translate(85,164)"/>
<path d="M0 0 C0.66 0 1.32 0 2 0 C2 2.97 2 5.94 2 9 C1.01 9 0.02 9 -1 9 C-0.67 6.03 -0.34 3.06 0 0 Z " fill="#635F5B" transform="translate(149,162)"/>
<path d="M0 0 C0.33 0 0.66 0 1 0 C1.33 1.98 1.66 3.96 2 6 C3.32 6.33 4.64 6.66 6 7 C5 8 5 8 2.93359375 8.09765625 C2.10988281 8.08605469 1.28617188 8.07445312 0.4375 8.0625 C-0.38878906 8.05347656 -1.21507812 8.04445312 -2.06640625 8.03515625 C-2.70449219 8.02355469 -3.34257812 8.01195312 -4 8 C-3.01 7.34 -2.02 6.68 -1 6 C-0.26656572 2.93443402 -0.26656572 2.93443402 0 0 Z " fill="#89827A" transform="translate(159,149)"/>
<path d="M0 0 C1.32 0.33 2.64 0.66 4 1 C3.6875 2.9375 3.6875 2.9375 3 5 C2.01 5.33 1.02 5.66 0 6 C0 4.02 0 2.04 0 0 Z " fill="#0B0A08" transform="translate(118,150)"/>
<path d="M0 0 C0.66 0 1.32 0 2 0 C2 2.64 2 5.28 2 8 C1.34 8 0.68 8 0 8 C-1.125 5.6875 -1.125 5.6875 -2 3 C-1.34 2.01 -0.68 1.02 0 0 Z " fill="#6E6864" transform="translate(110,149)"/>
<path d="M0 0 C1.98 0.99 1.98 0.99 4 2 C3.67 4.97 3.34 7.94 3 11 C2.67 11 2.34 11 2 11 C1.34 7.37 0.68 3.74 0 0 Z " fill="#DCD2BC" transform="translate(62,90)"/>
<path d="M0 0 C0.99 0 1.98 0 3 0 C3.125 2.875 3.125 2.875 3 6 C2.34 6.66 1.68 7.32 1 8 C0.67 5.36 0.34 2.72 0 0 Z " fill="#0F0E10" transform="translate(100,86)"/>
<path d="M0 0 C1.4606285 2.64738916 2 3.89448334 2 7 C0.35 6.67 -1.3 6.34 -3 6 C-2.67 5.34 -2.34 4.68 -2 4 C-1.34 4 -0.68 4 0 4 C0 2.68 0 1.36 0 0 Z " fill="#080609" transform="translate(127,165)"/>
<path d="M0 0 C0.33 0 0.66 0 1 0 C1.33 2.64 1.66 5.28 2 8 C0.35 8 -1.3 8 -3 8 C-2.67 7.01 -2.34 6.02 -2 5 C-1.67 5 -1.34 5 -1 5 C-0.67 3.35 -0.34 1.7 0 0 Z " fill="#141010" transform="translate(102,164)"/>
</svg>
